@startuml



enum solver_type {
 L2R_LR
 L2R_L2LOSS_SVC_DUAL
 L2R_L2LOSS_SVC
 L2R_L1LOSS_SVC_DUAL
 MCSVM_CS
 L1R_L2LOSS_SVC
 L1R_LR
 L2R_LR_DUAL
 L2R_L2LOSS_SVR = 11
 L2R_L2LOSS_SVR_DUAL
 L2R_L1LOSS_SVR_DUAL
 }


class parameter {
	int solver_type
	double eps
	double C
	int nr_weight
	int *weight_label
	double* weight
	double p
	double *init_sol
}


class model {
    parameter param;
	int nr_class;
	int nr_feature
	double *w
	int *label
	double bias
}

class problem {
	int l
 n;
	double *y;
	struct feature_node **x;
	double bias;
}

class feature_node {
	int index;
	double value;
}

model *- parameter :  1 >
problem *-- feature_node :  many >

main <. parse_command_line
parse_command_line <. read_problem
read_problem <. check_parameter
check_parameter <. train
train <--- model
train <-- problem

'parse_command_line <-- argv
'parse_command_line <-- argc

read_problem <-- input_file_name
parse_command_line --> model_file_name
parse_command_line --> input_file_name
parse_command_line ----> parameter
check_parameter <-- model
check_parameter <- problem

read_problem --> problem

@enduml